<?xml version="1.0" standalone="no"?>
<!DOCTYPE svg PUBLIC "-//W3C//DTD SVG 20010904//EN"
 "http://www.w3.org/TR/2001/REC-SVG-20010904/DTD/svg10.dtd">
<svg version="1.0" xmlns="http://www.w3.org/2000/svg"
 width="500.000000pt" height="500.000000pt" viewBox="0 0 500.000000 500.000000"
 preserveAspectRatio="xMidYMid meet">
<metadata>
Created by potrace 1.14, written by Peter Selinger 2001-2017
</metadata>
<g transform="translate(0.000000,500.000000) scale(0.100000,-0.100000)"
fill="#000000" stroke="none">
<path d="M2145 4615 c-95 -20 -167 -50 -249 -104 -110 -72 -159 -132 -227
-277 -22 -46 -44 -84 -50 -84 -6 0 -30 -9 -55 -20 -24 -11 -65 -29 -91 -40
-27 -12 -56 -25 -67 -31 -17 -10 -18 -8 -14 15 6 29 -15 55 -27 35 -11 -18
-18 -79 -8 -80 61 -5 101 -25 119 -61 9 -18 41 -88 70 -156 54 -126 151 -292
169 -292 6 1 19 7 29 15 29 22 118 19 170 -5 24 -12 65 -41 92 -66 51 -48 46
-48 -23 -2 -53 36 -114 57 -168 60 -32 1 -51 -5 -78 -26 l-35 -27 -29 38 c-44
58 -95 149 -136 244 -59 140 -85 185 -122 218 -20 17 -39 31 -43 31 -15 0 -82
70 -85 90 -4 27 -22 45 -31 31 -10 -16 -26 -14 -26 3 0 17 -27 29 -35 16 -8
-12 5 -60 24 -89 l15 -23 -42 7 c-64 10 -52 -9 33 -56 41 -22 75 -42 75 -44 0
-2 -23 -8 -51 -14 -111 -24 -247 -97 -364 -195 -78 -65 -202 -192 -210 -214
-3 -9 -32 -37 -64 -62 -61 -47 -142 -151 -184 -235 -57 -115 -69 -277 -30
-400 17 -54 62 -148 86 -179 13 -18 11 -25 -19 -72 -32 -50 -89 -166 -112
-229 -53 -141 -66 -438 -27 -634 16 -85 88 -257 154 -371 76 -132 115 -183
218 -286 99 -98 211 -170 320 -204 35 -11 78 -33 96 -50 55 -50 295 -210 387
-259 96 -50 269 -124 333 -142 59 -17 54 -16 142 -38 44 -10 103 -22 130 -26
28 -4 57 -9 65 -10 126 -23 476 -22 612 0 12 2 41 6 63 10 52 7 224 51 295 75
172 57 362 156 495 255 54 41 102 75 106 75 15 0 299 291 334 342 20 29 63 89
96 133 33 44 94 149 136 233 86 172 89 174 206 190 87 11 111 4 115 -35 4 -36
60 -93 93 -93 34 0 87 27 100 52 24 44 20 86 -13 124 -26 29 -37 34 -73 34
-24 0 -47 -4 -50 -10 -3 -5 -45 -9 -93 -9 -48 0 -103 -5 -122 -11 -19 -5 -36
-10 -37 -10 -4 0 8 48 26 105 10 33 18 61 16 63 -1 1 -22 -9 -46 -22 -48 -27
-329 -99 -474 -122 -42 -7 -275 -61 -365 -85 -41 -11 -120 -32 -175 -46 -55
-14 -242 -72 -415 -130 -173 -58 -322 -106 -330 -108 -8 -2 -44 -14 -80 -28
-127 -48 -222 -78 -228 -72 -10 10 11 20 100 48 81 26 87 29 79 50 -4 12 -6
27 -4 34 3 7 -19 5 -62 -9 -37 -11 -69 -17 -73 -14 -8 8 2 16 25 20 11 3 61
17 112 32 l91 28 0 39 c0 33 -3 38 -17 32 -42 -17 -157 -55 -167 -55 -28 0 28
30 101 55 82 28 83 29 83 62 0 18 -5 33 -10 33 -6 0 -37 -11 -70 -24 -56 -23
-59 -23 -50 -5 6 10 19 19 29 19 10 0 39 9 63 20 41 18 44 22 40 50 -4 30 -3
31 24 24 16 -4 36 -10 44 -14 9 -5 54 7 115 30 54 21 105 35 113 33 7 -3 10
-9 5 -13 -10 -9 -173 -63 -192 -63 -9 0 -7 -5 5 -13 30 -21 42 -32 46 -44 2
-7 62 8 165 42 168 55 175 60 165 111 -3 13 -9 16 -20 12 -10 -4 -30 -11 -47
-16 -28 -8 -29 -8 -10 7 11 8 32 18 48 21 15 3 27 12 27 19 0 16 18 18 39 5 8
-5 34 0 70 14 31 12 110 37 176 56 66 18 121 33 122 34 8 2 10 56 2 60 -8 6
-126 -23 -189 -45 -14 -5 -72 -23 -130 -40 -58 -17 -129 -41 -158 -52 -60 -23
-81 -18 -31 8 31 16 254 92 290 99 10 2 59 16 110 30 52 15 99 29 105 30 6 2
10 21 8 43 -3 63 4 66 80 32 37 -16 79 -30 93 -30 14 0 82 11 151 25 156 30
177 34 227 41 65 10 80 19 83 50 2 33 9 41 22 28 5 -5 6 -24 1 -46 -8 -34 -7
-37 9 -28 27 14 46 12 65 -7 15 -15 15 -17 1 -25 -9 -5 -23 -5 -35 2 -30 15
-31 14 -31 -35 0 -25 4 -45 9 -45 5 0 51 11 101 24 162 44 222 83 249 164 19
56 16 62 -20 34 -28 -21 -81 -46 -91 -44 -5 1 -8 -3 -8 -8 0 -6 -9 -10 -21
-10 -11 0 -28 -4 -38 -10 -27 -14 -131 -28 -137 -19 -3 5 8 11 23 15 132 29
242 72 289 112 20 17 46 86 58 155 l5 28 -37 -36 c-55 -54 -165 -111 -248
-130 -151 -33 -267 -56 -299 -60 -131 -16 -285 -46 -450 -86 -115 -29 -145
-37 -335 -93 -141 -42 -230 -64 -230 -57 0 5 88 34 275 88 28 9 73 22 100 30
81 24 268 72 300 78 17 3 48 9 70 15 22 5 92 18 155 29 63 11 129 23 145 26
17 3 46 8 65 11 84 14 221 54 269 78 140 71 221 211 221 381 0 182 -57 301
-187 393 -18 13 -33 28 -33 34 0 6 -16 44 -37 84 l-36 73 47 51 c100 107 112
217 32 282 -28 23 -64 22 -102 -1 -40 -24 -61 -90 -46 -144 11 -38 1 -57 -18
-35 -6 7 -35 51 -66 98 -31 47 -67 96 -80 111 -13 14 -24 29 -24 33 0 5 -30
42 -66 82 -36 41 -62 74 -57 74 4 0 19 10 33 23 117 105 182 154 203 150 12
-2 36 5 54 16 38 24 54 70 40 122 -22 90 -154 91 -190 1 -16 -41 -12 -73 14
-100 18 -20 17 -21 -23 -54 -23 -18 -46 -38 -52 -43 -30 -28 -104 -85 -111
-85 -4 0 -38 29 -76 64 -136 129 -381 297 -514 354 -44 18 -127 56 -184 83
-131 64 -275 113 -348 121 -5 0 -18 4 -31 9 -76 29 -341 44 -482 27 -100 -12
-225 -51 -285 -89 -60 -38 -158 -131 -196 -186 -16 -22 -43 -81 -59 -130 l-31
-88 6 59 c4 33 10 66 15 75 4 9 17 39 30 66 44 98 147 202 248 250 67 32 200
71 272 80 70 9 243 9 301 1 l44 -7 -34 16 c-116 53 -321 75 -446 50z m812
-302 c86 -42 159 -104 205 -172 l31 -46 -64 62 c-81 78 -112 102 -174 138
-114 64 -112 74 2 18z m-147 -84 c115 -43 224 -129 266 -212 27 -51 29 -126 4
-180 -17 -39 -24 -46 -35 -37 -11 9 -11 18 -3 38 14 36 18 101 7 108 -5 3 -7
10 -4 15 4 5 1 9 -4 9 -6 0 -11 6 -11 13 0 18 -50 71 -87 93 -18 10 -33 22
-33 27 0 4 -4 5 -10 2 -5 -3 -10 -2 -10 2 0 10 -89 52 -165 78 -31 11 -98 20
-175 24 l-125 6 75 17 c131 30 224 29 310 -3z m-55 -154 c56 -11 116 -47 158
-96 46 -53 77 -122 51 -112 -8 3 -21 18 -30 34 -8 16 -21 29 -30 29 -8 0 -12
5 -9 10 6 9 -8 14 -27 11 -5 0 -8 6 -8 14 0 8 -5 15 -11 15 -5 0 -7 4 -4 10 3
6 -1 7 -9 4 -10 -4 -16 -1 -16 7 0 11 -3 11 -10 -1 -7 -11 -10 -12 -10 -2 0 9
-7 11 -22 7 -23 -7 -23 -7 -3 9 19 15 19 16 -7 6 -21 -7 -27 -6 -25 3 1 7 -7
11 -22 9 -13 -2 -21 0 -18 5 3 4 -11 9 -31 10 -21 1 -55 4 -77 8 -22 3 -46 7
-53 7 -21 2 1 16 33 21 33 6 133 1 180 -8z m-655 -77 c0 -12 -14 -10 -27 3
-18 18 -55 -11 -105 -82 -80 -113 -118 -174 -130 -206 -12 -32 -28 -45 -28
-22 0 25 56 148 91 199 44 65 96 123 123 137 14 8 26 6 47 -6 16 -9 29 -19 29
-23z m259 -50 c-13 -11 -31 -25 -39 -31 -8 -7 -35 -28 -59 -47 -25 -19 -56
-46 -69 -60 l-23 -25 15 31 c17 34 118 132 150 143 37 14 50 9 25 -11z m460
-34 c39 -8 40 -24 1 -24 -59 0 -163 -46 -202 -90 -77 -86 -107 -206 -75 -300
l16 -45 -24 30 c-52 64 -59 204 -14 292 27 51 99 114 153 131 37 12 101 14
145 6z m1041 -114 c0 -11 -165 -63 -182 -58 -6 2 30 18 78 35 101 36 104 37
104 23z m64 -68 c3 -5 -23 -20 -57 -33 l-62 -24 -1 -80 c-1 -130 -11 -148 -69
-126 -19 8 -19 8 1 19 12 6 24 8 28 5 3 -3 6 -1 6 5 0 13 -23 16 -34 5 -4 -5
-11 -8 -14 -9 -4 0 -14 -4 -22 -7 -8 -4 -67 -24 -130 -46 -63 -21 -141 -50
-172 -64 -44 -20 -58 -23 -58 -13 0 8 15 19 33 25 19 6 51 20 72 31 22 11 49
20 60 20 12 0 25 4 31 9 5 5 25 14 44 20 19 5 71 23 115 39 75 28 80 31 83 61
4 38 -1 38 -80 6 -34 -14 -67 -25 -75 -25 -7 0 -13 -4 -13 -10 0 -5 -9 -10
-19 -10 -11 0 -59 -18 -106 -40 -47 -22 -92 -40 -98 -40 -18 1 23 30 73 52 25
11 58 25 75 33 16 7 48 19 70 25 22 7 45 16 50 20 6 4 36 15 68 25 42 13 57
23 57 36 0 10 -3 20 -8 23 -10 6 -184 -55 -277 -98 -67 -31 -97 -35 -62 -9 18
14 213 90 277 108 30 9 64 20 75 25 31 15 119 49 127 49 4 1 9 -3 12 -7z
m-389 -41 c-4 -15 -23 -26 -61 -37 -76 -22 -106 -51 -201 -197 -91 -138 -149
-203 -208 -231 -53 -25 -95 -36 -95 -25 0 5 7 9 15 9 45 0 151 83 181 142 8
15 18 28 22 28 4 0 16 17 27 37 11 20 25 41 30 47 6 6 24 34 39 61 63 109 95
135 179 150 21 3 46 14 55 24 21 22 26 19 17 -8z m433 -28 c-1 -4 -25 -16 -53
-25 -60 -21 -58 -21 -53 -7 3 10 99 49 106 43 2 -1 2 -6 0 -11z m62 -63 c0 -5
-12 -13 -27 -16 -16 -4 -32 -9 -38 -13 -17 -9 -45 -11 -45 -3 0 8 75 40 98 41
6 1 12 -3 12 -9z m358 -53 c4 -19 -64 -94 -75 -83 -12 12 -4 69 13 87 21 24
57 21 62 -4z m-2998 -22 c0 -3 -30 -19 -67 -36 -100 -44 -154 -72 -173 -89 -9
-8 -32 -28 -51 -45 -19 -16 -50 -50 -69 -75 -57 -74 -62 -78 -59 -44 2 16 0
35 -5 42 -13 21 101 125 185 168 85 44 239 94 239 79z m2954 -93 c-58 -51 -79
-68 -179 -139 -55 -39 -114 -86 -131 -105 -35 -36 -64 -88 -64 -113 0 -8 -4
-15 -9 -15 -14 0 4 65 29 107 12 21 38 52 57 68 35 29 313 222 323 224 3 0 -9
-12 -26 -27z m-2070 -67 c40 -6 41 -7 41 -46 0 -28 -4 -39 -15 -40 -8 0 -26
-2 -40 -3 -41 -5 -118 23 -155 55 -30 27 -35 37 -35 75 l0 43 81 -39 c45 -21
100 -42 123 -45z m-1426 57 c10 6 -11 -17 -45 -53 -100 -104 -179 -244 -185
-329 -1 -16 -6 -30 -11 -30 -19 0 25 191 49 211 8 6 14 16 14 21 0 18 82 116
115 140 19 12 35 30 36 38 0 11 2 11 6 2 4 -10 8 -10 21 0z m1857 -34 c-4 -13
-18 -39 -31 -58 -23 -34 -23 -35 -4 -42 21 -8 28 -28 9 -28 -5 0 -7 6 -3 13 5
9 4 9 -6 0 -9 -8 -20 -9 -39 -1 -36 14 -128 11 -174 -5 l-38 -13 46 -18 c25
-11 45 -23 45 -28 0 -4 -24 -19 -53 -31 -57 -26 -158 -119 -246 -229 -91 -113
-164 -151 -296 -151 -85 0 -138 8 -143 24 -2 5 -8 7 -13 3 -5 -3 -9 0 -9 6 0
6 -5 8 -10 5 -6 -4 -10 -3 -9 2 4 21 -2 33 -16 33 -15 0 -66 46 -59 53 3 2
-10 11 -28 20 -19 9 -45 26 -58 38 -14 12 -36 29 -50 38 -24 15 -50 37 -127
107 -42 38 -83 93 -83 111 0 7 31 -17 69 -55 128 -128 275 -223 421 -272 158
-54 286 -6 392 148 108 156 221 236 360 251 71 7 96 22 126 73 20 34 36 37 27
6z m-2064 -33 c-64 -70 -141 -198 -146 -246 -1 -8 -7 -24 -14 -35 -10 -17 -11
-15 -7 11 8 57 18 85 29 78 6 -4 8 0 4 11 -9 24 53 119 117 179 64 59 71 60
17 2z m1756 -44 c-27 -11 -41 64 -16 80 11 7 15 -1 19 -34 3 -23 1 -44 -3 -46z
m-522 21 c-44 -38 -152 -104 -206 -125 -81 -33 -135 -41 -194 -32 -53 7 -54
11 -6 20 19 3 37 8 41 10 4 2 22 7 41 10 55 10 179 55 249 91 63 32 95 43 75
26z m1853 -149 c19 -9 44 -34 60 -62 l27 -46 3 -351 3 -351 -63 -22 c-103 -37
-103 -37 -102 42 0 37 -2 67 -5 67 -3 0 -36 -12 -74 -27 -76 -30 -86 -43 -82
-110 l3 -42 -67 -25 c-36 -15 -72 -26 -79 -26 -16 0 -17 649 -1 718 15 60 88
170 132 200 87 58 171 70 245 35z m-2468 -23 c0 -9 -47 -19 -55 -12 -3 3 2 14
11 24 13 14 20 15 31 7 7 -6 13 -15 13 -19z m-96 -36 c33 -19 63 -27 101 -28
41 -1 51 -4 43 -13 -13 -16 -64 -17 -109 -1 -40 13 -89 46 -89 59 0 13 2 12
54 -17z m3190 -43 c2 -3 -15 -6 -38 -7 -48 -1 -102 -32 -116 -68 l-9 -21 0 21
c-1 31 35 72 72 82 32 8 84 5 91 -7z m-3414 -134 c-19 -18 -66 -57 -105 -86
-83 -65 -185 -169 -260 -268 -30 -39 -55 -74 -55 -76 0 -3 -15 -32 -34 -65
-128 -227 -144 -501 -39 -658 104 -153 239 -232 463 -270 25 -4 47 -8 50 -9
19 -5 148 -17 210 -19 65 -2 75 -5 75 -21 0 -16 -8 -18 -70 -16 -203 6 -330
29 -470 83 -129 50 -206 111 -277 218 -66 100 -83 159 -83 295 0 103 4 132 29
210 70 225 189 405 371 562 53 45 212 153 225 153 3 0 -11 -15 -30 -33z m2230
-5 c14 -11 34 -34 45 -53 19 -32 20 -52 20 -363 l0 -328 -69 -25 c-55 -20 -70
-22 -77 -12 -4 8 -8 141 -8 297 0 156 -2 286 -5 289 -13 14 -57 -10 -73 -40
-15 -28 -17 -68 -17 -314 -1 -191 -4 -283 -12 -283 -17 0 -97 55 -128 88 l-28
31 0 143 c0 140 0 145 30 204 17 34 43 99 58 145 33 104 114 225 159 238 39
12 74 6 105 -17z m-1531 -849 c0 -304 -1 -553 -4 -553 -28 0 -139 81 -189 138
-74 84 -171 235 -262 410 -24 46 -44 81 -45 78 0 -3 0 -103 -1 -221 l0 -215
28 -58 c16 -31 30 -60 32 -63 2 -5 -209 38 -215 45 -2 2 -5 960 -3 1100 0 26
9 16 64 -70 36 -54 87 -137 113 -184 27 -47 81 -139 119 -205 90 -153 147
-255 156 -277 4 -10 11 -18 15 -18 4 0 7 186 5 412 l-3 413 94 -90 94 -90 2
-552z m2451 697 c11 -7 7 -10 -17 -10 -47 0 -109 -58 -127 -119 l-15 -46 0 43
c-1 24 6 56 14 73 28 54 105 85 145 59z m178 -200 c-37 -33 -106 -49 -141 -32
-19 9 -16 10 14 5 40 -6 116 25 139 57 8 11 16 16 18 10 2 -6 -11 -24 -30 -40z
m-1795 -66 c58 -21 97 -53 118 -98 34 -75 22 -142 -35 -204 l-31 -33 30 6 c17
4 50 16 74 26 l44 19 35 -37 c19 -21 61 -72 93 -113 31 -41 68 -85 81 -97 22
-21 24 -32 27 -120 2 -91 1 -96 -15 -82 -34 27 -70 65 -172 181 -56 64 -108
120 -114 124 -7 4 -32 7 -57 6 -26 -2 -59 4 -75 13 -15 8 -31 15 -35 15 -4 0
-6 -53 -6 -117 l2 -118 -65 -32 c-36 -18 -67 -31 -70 -28 -7 6 -3 686 4 697 8
13 121 8 167 -8z m-441 -39 c79 -1 89 -4 107 -26 49 -58 54 -85 56 -263 3
-223 -13 -284 -95 -365 -48 -47 -112 -71 -183 -67 -74 4 -108 25 -142 88 l-29
53 0 190 c0 152 4 200 17 240 30 88 117 173 162 158 11 -4 59 -7 107 -8z
m-1265 -247 c3 -206 2 -220 -14 -214 -10 4 -14 4 -11 0 10 -9 -45 -65 -68 -68
-10 -2 -22 2 -26 8 -5 8 -8 7 -8 -1 0 -20 -37 -15 -43 6 -6 26 18 77 43 91 12
7 38 10 56 8 l34 -4 0 191 c0 134 4 195 12 203 6 6 14 9 17 6 3 -3 7 -104 8
-226z m2235 -295 c-6 -3 -9 -10 -5 -16 4 -7 -1 -6 -10 2 -16 12 -17 12 -10 -5
6 -17 5 -17 -11 -5 -18 15 -12 27 19 33 23 5 36 -2 17 -9z m-372 -253 c0 -5
-3 -9 -7 -8 -5 1 -23 -6 -41 -16 -33 -17 -33 -17 -23 3 10 17 20 22 64 30 4 0
7 -3 7 -9z m-460 -28 c0 -5 -7 -17 -16 -28 -8 -10 -12 -13 -8 -5 3 7 0 18 -7
23 -11 8 -10 9 4 4 9 -3 17 -1 17 4 0 6 2 10 5 10 3 0 5 -4 5 -8z m-240 -68
c0 -8 -19 -13 -24 -6 -3 5 1 9 9 9 8 0 15 -2 15 -3z m-28 -31 c-6 -2 -9 -10
-6 -15 4 -7 2 -8 -5 -4 -13 9 -5 26 12 25 9 0 8 -2 -1 -6z m-1347 -53 c14 -23
247 -121 298 -126 9 -1 18 -2 20 -4 1 -1 11 -3 22 -5 11 -1 34 -5 50 -9 29 -6
147 -14 269 -20 35 -1 61 -7 64 -14 3 -9 -30 -10 -125 -6 -70 2 -137 6 -148 8
-11 2 -42 6 -70 11 -114 17 -148 25 -162 37 -7 6 -13 7 -13 4 0 -4 -39 13 -87
38 -89 46 -158 95 -136 96 6 0 15 -5 18 -10z m1555 -4 c0 -10 -22 -21 -61 -32
-54 -15 -59 -19 -39 -26 13 -5 32 -10 42 -11 49 -8 32 -51 -25 -63 -41 -9 -42
-10 -45 -55 -3 -45 -2 -46 23 -42 33 7 33 -15 0 -23 -14 -3 -25 -11 -25 -16 0
-6 -6 -8 -14 -5 -8 3 -53 -5 -100 -18 -74 -19 -87 -20 -84 -7 2 8 11 16 22 18
38 5 122 27 138 35 12 6 16 20 15 44 -2 41 -1 40 -92 15 -38 -10 -71 -17 -73
-16 -10 11 34 35 74 41 83 12 95 20 92 61 -1 19 -5 37 -9 40 -4 2 -32 -5 -63
-15 -48 -16 -57 -16 -54 -4 2 10 41 25 113 43 61 16 121 33 135 39 14 5 26 10
28 10 1 1 2 -6 2 -13z m-600 -76 c40 -172 105 -329 179 -430 97 -133 204 -229
331 -298 83 -45 221 -96 290 -107 25 -4 54 -10 65 -13 11 -3 92 -6 180 -8 241
-5 427 34 645 134 89 41 191 115 248 178 110 124 128 233 50 314 -49 49 -101
70 -182 70 -86 0 -78 19 11 27 142 13 253 -76 253 -201 0 -53 -18 -126 -32
-126 -4 0 -8 -5 -8 -11 0 -13 -73 -102 -125 -151 -55 -52 -200 -134 -315 -179
-167 -65 -304 -91 -505 -95 -94 -1 -189 1 -210 6 -237 54 -311 83 -446 171
-83 55 -119 87 -195 174 -73 84 -91 110 -136 196 -37 69 -103 251 -112 309
-20 127 -12 152 14 40z m-200 -169 c3 -1 -1 -5 -9 -10 -14 -9 -59 -5 -95 9
-13 5 0 7 39 5 33 -2 62 -4 65 -4z m694 -94 c-2 -7 -44 -21 -92 -31 -48 -10
-97 -20 -110 -23 -17 -4 -21 -2 -17 10 4 8 25 17 53 21 70 9 98 15 124 25 33
14 48 13 42 -2z m-651 -66 c9 -1 17 -5 17 -10 0 -10 -36 -22 -43 -14 -3 2 -34
6 -69 9 -34 2 -76 8 -93 13 -28 9 -8 9 188 2z m2227 -375 c0 -2 -8 -10 -17
-17 -16 -13 -17 -12 -4 4 13 16 21 21 21 13z"/>
<path d="M979 3293 c-7 -10 -9 -15 -5 -11 5 4 16 2 25 -5 14 -10 14 -10 4 4
-7 9 -10 19 -6 22 3 4 4 7 1 7 -3 0 -12 -8 -19 -17z"/>
<path d="M3575 3010 c-40 -16 -68 -58 -73 -109 l-4 -50 76 36 c75 36 76 37 76
75 0 49 -28 68 -75 48z"/>
<path d="M3630 2769 c-8 -5 -41 -20 -72 -33 -58 -25 -58 -25 -59 -68 -2 -107
-1 -139 4 -144 6 -6 140 46 147 58 6 8 4 187 -2 193 -1 1 -10 -1 -18 -6z"/>
<path d="M2437 2373 c-6 -11 -1 -162 5 -168 3 -3 17 8 32 25 27 33 34 77 16
110 -12 22 -47 44 -53 33z"/>
<path d="M1943 2335 c-54 -23 -66 -61 -66 -215 0 -107 4 -142 17 -168 30 -58
92 -53 140 11 18 24 21 45 24 149 4 144 -1 177 -33 212 -27 29 -37 31 -82 11z"/>
<path d="M1526 4568 c-4 -9 -31 -28 -60 -43 -78 -39 -102 -66 -115 -125 -6
-28 -11 -58 -11 -66 0 -8 -8 -17 -17 -21 -10 -3 -30 -15 -45 -25 -37 -25 -39
-80 -5 -102 96 -61 232 5 253 123 3 14 18 40 34 56 34 35 53 80 45 106 -4 10
-18 28 -33 40 -15 11 -30 33 -33 47 -5 22 -7 24 -13 10z"/>
<path d="M3077 4563 c-15 -14 -7 -43 12 -43 20 0 35 25 25 41 -6 11 -28 12
-37 2z"/>
<path d="M3337 4482 c-46 -50 13 -114 74 -82 13 7 19 21 19 45 0 52 -59 75
-93 37z"/>
<path d="M3945 4366 c-49 -49 -19 -126 50 -126 48 0 75 25 75 69 0 49 -18 72
-63 78 -29 4 -41 0 -62 -21z"/>
<path d="M3622 4345 c-34 -15 -52 -47 -52 -95 0 -34 49 -80 87 -80 81 0 123
94 68 154 -13 14 -28 26 -34 26 -5 0 -15 2 -23 5 -7 2 -28 -2 -46 -10z"/>
<path d="M1026 4179 c-9 -14 -12 -29 -7 -43 11 -28 58 -29 77 -1 12 18 11 24
-2 43 -19 28 -49 28 -68 1z"/>
<path d="M664 4180 c-95 -22 -163 -116 -164 -222 0 -102 45 -180 130 -223 72
-36 105 -40 130 -15 19 19 20 24 7 43 -8 12 -27 24 -43 28 -115 24 -177 130
-134 227 32 71 129 108 194 75 71 -37 100 -103 56 -131 -43 -27 -14 -92 40
-92 43 0 64 38 63 111 -3 141 -133 234 -279 199z"/>
<path d="M3863 4074 c-3 -8 1 -22 9 -30 13 -14 17 -14 31 1 9 8 14 22 11 30
-8 20 -43 19 -51 -1z"/>
<path d="M4430 4015 c-19 -14 -36 -28 -39 -32 -3 -5 -31 -27 -61 -49 -44 -33
-61 -41 -85 -37 -21 3 -39 -2 -58 -17 -31 -25 -35 -58 -9 -89 38 -48 106 -28
118 33 4 26 19 45 62 79 116 92 155 137 119 137 -7 0 -28 -11 -47 -25z"/>
<path d="M4529 3848 c-91 -34 -114 -165 -39 -218 47 -34 71 -5 26 31 -65 51
-25 146 67 154 17 2 35 3 40 4 4 1 7 8 7 16 0 23 -54 30 -101 13z"/>
<path d="M433 3610 c-17 -36 -33 -75 -37 -87 -7 -22 -8 -22 -32 -7 -30 21 -69
12 -90 -21 -20 -31 -11 -61 26 -80 60 -31 98 -8 131 81 12 33 23 61 25 63 1 2
15 -6 31 -16 35 -25 70 -33 103 -23 24 7 23 8 -17 24 -42 18 -85 64 -102 108
-8 21 -11 17 -38 -42z"/>
<path d="M4645 3494 l-30 -25 23 -16 c15 -10 22 -26 22 -47 0 -27 -7 -35 -55
-64 -30 -18 -61 -40 -70 -48 -8 -9 -22 -17 -29 -18 -20 -3 -46 -26 -46 -42 0
-7 10 -18 21 -25 29 -15 69 6 76 42 4 19 19 34 54 53 76 42 79 47 79 137 0 43
-3 79 -7 79 -5 -1 -21 -12 -38 -26z"/>
<path d="M4550 3375 c0 -8 5 -15 10 -15 6 0 10 7 10 15 0 8 -4 15 -10 15 -5 0
-10 -7 -10 -15z"/>
<path d="M253 3278 c-21 -28 -23 -37 -7 -52 8 -9 22 -16 29 -16 22 0 45 29 38
48 -12 32 -43 42 -60 20z"/>
<path d="M4656 3203 c-61 -31 -105 -58 -99 -60 15 -5 193 53 221 73 26 18 29
44 5 44 -10 -1 -67 -26 -127 -57z"/>
<path d="M130 3080 c-35 -35 -17 -80 33 -80 46 0 67 46 36 79 -25 26 -43 27
-69 1z"/>
<path d="M4657 3003 c-13 -12 -7 -44 8 -49 24 -10 47 14 34 37 -10 19 -30 25
-42 12z"/>
<path d="M209 2925 c0 -11 -2 -75 -3 -142 0 -67 -4 -124 -7 -127 -3 -4 -17 -2
-31 3 -36 13 -86 -11 -102 -51 -34 -80 53 -139 135 -91 38 23 46 51 44 166
l-2 98 26 -6 c14 -4 39 -18 54 -33 23 -22 28 -34 25 -64 -4 -40 2 -47 21 -24
34 41 -5 129 -67 155 -21 9 -39 30 -61 74 -19 39 -31 54 -32 42z"/>
<path d="M4741 2793 c1 -48 0 -93 0 -100 -1 -6 -13 -13 -27 -15 -59 -7 -56
-70 3 -76 44 -4 56 18 59 106 1 42 2 81 3 85 1 5 14 -1 30 -13 33 -23 34 -53
4 -75 -22 -16 -12 -29 16 -20 26 8 48 52 43 83 -2 12 -16 30 -30 39 -15 9 -44
30 -64 46 l-37 28 0 -88z"/>
<path d="M4776 2504 c-32 -32 -6 -81 37 -70 35 8 48 53 22 73 -24 17 -40 17
-59 -3z"/>
<path d="M277 2493 c-11 -10 -8 -41 3 -48 19 -12 41 15 29 36 -10 20 -21 24
-32 12z"/>
<path d="M92 2367 c-75 -42 -70 -165 9 -182 69 -15 129 30 129 97 0 60 -86
113 -138 85z"/>
<path d="M4671 2317 c-8 -10 -7 -18 2 -31 11 -15 15 -15 32 -2 16 12 17 16 6
30 -16 19 -25 20 -40 3z"/>
<path d="M4840 2237 c-14 -12 -45 -38 -70 -57 -25 -19 -56 -45 -70 -57 -14
-13 -30 -23 -37 -23 -23 0 -28 -2 -42 -13 -31 -26 -30 -77 3 -99 37 -25 89 12
95 67 2 21 17 43 50 72 25 23 49 42 54 43 4 0 7 -11 7 -25 0 -18 5 -25 20 -25
18 0 20 7 20 70 0 39 -1 70 -3 70 -1 0 -13 -10 -27 -23z"/>
<path d="M137 2073 c-14 -13 -6 -41 12 -46 34 -9 57 35 25 47 -20 8 -29 8 -37
-1z"/>
<path d="M4085 2065 c-33 -8 -116 -24 -185 -36 -69 -13 -128 -24 -132 -25 -5
-1 -15 -2 -23 -3 -8 0 -15 -7 -15 -15 0 -19 -27 -24 -64 -14 -16 4 -47 5 -68
2 -35 -6 -38 -9 -38 -40 0 -19 3 -34 8 -34 4 0 41 9 82 19 41 10 103 24 138
31 34 7 62 15 62 19 0 3 27 6 60 5 52 -1 95 5 225 31 11 2 23 4 28 4 4 1 7 17
7 36 0 39 1 39 -85 20z"/>
<path d="M4512 2068 c-27 -33 -154 -80 -272 -102 -14 -2 -33 -7 -42 -11 -12
-5 -20 -2 -24 9 -4 10 -18 16 -38 16 l-31 0 25 -20 c14 -11 31 -20 38 -20 9 0
10 -5 3 -19 -6 -10 -7 -22 -3 -26 10 -10 -40 5 -55 17 -10 8 -13 1 -13 -32 0
-40 1 -41 28 -36 15 4 38 9 52 11 52 10 67 14 149 40 112 36 177 76 191 120 6
19 10 42 8 51 -3 15 -4 16 -16 2z"/>
<path d="M3560 2000 c0 -5 10 -10 23 -10 18 0 19 2 7 10 -19 13 -30 13 -30 0z"/>
<path d="M3955 1952 c-67 -16 -70 -19 -73 -49 l-3 -31 38 9 c21 4 64 13 96 19
54 11 57 13 57 41 0 35 -10 36 -115 11z"/>
<path d="M4451 1924 c-34 -24 -176 -71 -284 -95 -46 -10 -61 -18 -67 -35 -5
-13 -21 -30 -35 -40 -23 -15 -27 -15 -50 0 -14 9 -25 20 -25 25 0 5 -8 8 -17
6 -10 -2 -34 -6 -53 -9 -29 -5 -36 -11 -38 -32 -1 -14 0 -29 3 -34 4 -6 82 8
200 35 11 3 58 12 104 21 94 18 224 59 259 82 25 16 52 61 52 87 0 20 -8 18
-49 -11z"/>
<path d="M3795 1930 c-16 -4 -76 -18 -132 -31 l-103 -22 0 -34 c0 -18 2 -33 3
-33 11 0 279 59 282 62 4 4 8 30 6 51 -1 18 -10 20 -56 7z"/>
<path d="M4800 1894 c-30 -7 -66 -16 -80 -20 -14 -3 -34 -7 -45 -9 -11 -2 -22
-4 -25 -6 -3 -1 -9 -3 -15 -4 -42 -6 -116 -29 -121 -37 -8 -13 16 -29 36 -23
8 2 29 7 45 9 80 14 106 19 179 34 50 11 83 23 90 34 18 29 -4 37 -64 22z"/>
<path d="M3990 1874 c-36 -8 -75 -17 -88 -20 -18 -3 -22 -10 -20 -35 2 -29 3
-30 48 -23 25 4 61 15 80 25 19 11 40 19 47 19 7 0 13 11 13 25 0 14 -3 25 -7
24 -5 0 -37 -7 -73 -15z"/>
<path d="M89 1851 c-32 -26 -32 -86 1 -111 50 -38 120 -5 120 56 0 64 -71 96
-121 55z"/>
<path d="M3520 1866 c-5 -4 -54 -19 -250 -77 -96 -28 -94 -27 -81 -43 10 -12
8 -15 -11 -18 -21 -3 -23 -8 -23 -65 0 -57 2 -63 20 -63 37 0 48 15 43 58 -3
39 -1 42 32 56 32 14 161 52 249 74 19 4 35 14 36 22 2 21 -9 63 -15 56z"/>
<path d="M3739 1824 c-156 -33 -172 -38 -175 -56 -1 -8 -5 -24 -8 -35 -6 -19
-4 -19 81 3 49 12 108 25 133 29 25 3 52 8 61 11 17 5 31 46 20 61 -3 5 -54
-1 -112 -13z"/>
<path d="M3333 1721 c-81 -25 -83 -27 -83 -58 0 -18 2 -33 5 -33 3 0 44 12 92
26 49 14 94 26 101 27 8 0 10 6 6 16 -4 9 -6 24 -6 34 1 22 -15 21 -115 -12z"/>
<path d="M3669 1722 c-30 -7 -137 -37 -238 -65 -154 -43 -184 -55 -191 -73
-12 -31 -34 -43 -25 -14 6 19 4 22 -10 17 -9 -4 -23 -7 -31 -7 -9 0 -14 -11
-14 -35 0 -34 1 -35 28 -29 15 4 32 10 37 14 6 5 55 19 110 33 55 15 168 44
250 65 83 22 162 42 176 45 22 6 25 11 21 37 -5 35 -20 36 -113 12z"/>
<path d="M3020 1623 c-41 -13 -82 -28 -90 -32 -8 -4 -39 -14 -67 -20 -29 -7
-53 -16 -54 -19 0 -4 -2 -16 -5 -27 -6 -33 3 -47 23 -36 22 13 271 91 288 91
10 0 12 18 6 63 -2 11 -19 8 -101 -20z"/>
<path d="M2683 1603 c-19 -4 -23 -11 -23 -39 0 -37 18 -45 43 -19 13 13 16 13
27 -1 15 -17 15 -18 -30 -30 -30 -8 -35 -14 -38 -43 -3 -32 -3 -33 30 -26 18
4 48 13 66 21 27 11 32 18 32 48 0 58 -50 100 -107 89z"/>
<path d="M3010 1532 c-19 -8 -105 -38 -190 -68 -149 -51 -155 -54 -163 -85 -4
-17 -6 -33 -4 -36 4 -4 249 76 364 119 47 17 52 22 43 39 -6 11 -8 24 -5 29
10 16 -10 17 -45 2z"/>
<path d="M143 1520 c-19 -29 1 -69 34 -70 19 0 43 30 43 55 0 38 -56 49 -77
15z"/>
<path d="M4413 1479 c-32 -12 -45 -42 -29 -64 11 -15 25 -18 70 -16 115 4 214
-70 224 -168 7 -74 -30 -130 -102 -155 -49 -17 -91 -9 -126 24 -40 37 -47 73
-21 99 33 33 25 62 -22 80 -22 9 -31 7 -52 -12 -70 -60 -20 -208 88 -264 38
-19 118 -24 165 -10 46 15 109 78 133 135 69 161 -69 343 -271 357 -19 1 -45
-1 -57 -6z"/>
<path d="M248 1358 c-59 -20 -38 -112 25 -106 21 2 35 11 43 26 26 52 -13 98
-68 80z"/>
<path d="M416 1097 c-23 -17 -14 -57 13 -57 32 0 44 24 24 49 -16 19 -20 20
-37 8z"/>
<path d="M4189 1003 c-9 -23 -7 -30 10 -44 39 -32 82 2 66 51 -4 14 -15 20
-36 20 -23 0 -32 -6 -40 -27z"/>
<path d="M535 949 c-56 -45 -36 -149 34 -170 68 -20 130 30 127 103 -1 21 -4
39 -7 40 -2 2 -14 12 -27 22 -31 27 -95 29 -127 5z"/>
<path d="M4020 870 c-23 -23 -34 -62 -27 -90 3 -13 0 -20 -9 -20 -8 0 -14 -4
-14 -8 0 -5 -12 -15 -27 -23 -16 -7 -50 -30 -77 -51 -35 -28 -55 -37 -70 -32
-12 3 -23 6 -26 6 -45 1 -77 -25 -89 -70 -8 -27 -6 -36 16 -62 53 -63 156 -24
148 56 -3 32 1 37 78 94 70 53 85 60 111 54 17 -3 33 -7 36 -7 3 -1 20 2 38 6
25 5 36 15 48 43 17 40 11 68 -19 102 -27 29 -89 30 -117 2z"/>
<path d="M873 797 c-46 -17 -73 -47 -80 -90 -17 -105 96 -186 189 -136 29 15
58 70 58 108 0 45 -36 100 -76 117 -39 16 -48 16 -91 1z"/>
<path d="M1191 511 c-21 -39 20 -82 60 -61 15 9 19 19 17 43 -3 28 -7 32 -35
35 -23 2 -34 -2 -42 -17z"/>
</g>
</svg>
