<?xml version="1.0" standalone="no"?>
<!DOCTYPE svg PUBLIC "-//W3C//DTD SVG 20010904//EN"
 "http://www.w3.org/TR/2001/REC-SVG-20010904/DTD/svg10.dtd">
<svg version="1.0" xmlns="http://www.w3.org/2000/svg"
 width="166.000000pt" height="166.000000pt" viewBox="0 0 166.000000 166.000000"
 preserveAspectRatio="xMidYMid meet">
<metadata>
Created by potrace 1.14, written by Peter Selinger 2001-2017
</metadata>
<g transform="translate(0.000000,166.000000) scale(0.100000,-0.100000)"
fill="#000000" stroke="none">
<path d="M400 1259 c220 -220 400 -402 400 -405 0 -2 -178 -4 -395 -4 -217 0
-395 -2 -395 -4 0 -3 180 -185 400 -404 l400 -399 400 0 c220 0 400 2 400 4 0
2 -181 184 -401 403 l-402 400 402 2 402 3 -402 403 -401 402 -404 0 -404 0
400 -401z"/>
</g>
</svg>
